# File created by Blade
# Date/Time:  Tue Jan 27 20:02:37 2015
# Frame Rate: 120.000 fps
#------------------------------------------------------
:FULLY-SPECIFIED
:DEGREES
3694
root 7.017293 33.844586 3.279049 31.092755 -23.800142 -28.346730
Spine 1.551290 20.620220 1.302928
Head -20.369897 2.404230 11.427343
LeftShoulder -14.117689 -2.408700 29.797659
LeftArm -7.061441 -27.897911 -75.500599
LeftForeArm -48.632734 -0.000000 133.967105
LeftHand 7.755239 -0.000000 -43.433637
LeftHandThumb1 -26.253704 0.000000 33.147579
RightShoulder -9.849952 -3.516705 -23.527609
RightArm 34.140840 -54.470538 78.322153
RightForeArm -18.943678 -0.000000 17.249352
RightHand 16.497880 -0.000000 12.559720
RightHandThumb1 -24.326973 -0.000000 -32.862282
LeftUpLeg -11.795122 20.814086 10.790306
LeftLeg -8.049741 -0.000000 0.000000
LeftFoot -18.243914 26.605956 -16.704543
LeftToeBase 19.601813 -0.000000 -0.000000
RightUpLeg 19.046542 -44.622125 -45.916487
RightLeg 116.746922 -0.000000 -0.000000
RightFoot 34.562414 -22.457000 23.631239
RightToeBase 17.927684 -0.000000 -0.000000
3695
root 7.013611 33.850789 3.289710 31.023132 -23.670188 -28.388037
Spine 1.531843 20.563293 1.403424
Head -20.452393 2.312865 11.443967
LeftShoulder -14.068880 -2.400620 29.773145
LeftArm -7.112166 -27.837513 -75.575967
LeftForeArm -48.584758 -0.000000 134.068737
LeftHand 7.790207 -0.000000 -43.505608
LeftHandThumb1 -26.253704 0.000000 33.147579
RightShoulder -9.913940 -3.575880 -23.458918
RightArm 34.078188 -54.533644 78.293367
RightForeArm -18.963682 -0.000000 17.261633
RightHand 16.460999 -0.000000 12.488046
RightHandThumb1 -24.326973 -0.000000 -32.862282
LeftUpLeg -11.746342 20.887760 10.869645
LeftLeg -8.046427 -0.000000 0.000000
LeftFoot -18.291065 26.439381 -16.836084
LeftToeBase 19.785360 -0.000000 -0.000000
RightUpLeg 19.339855 -44.290860 -46.156444
RightLeg 118.281892 -0.000000 -0.000000
RightFoot 34.994519 -22.117577 23.516874
RightToeBase 18.330899 -0.000000 -0.000000
3696
root 7.010629 33.857298 3.299630 31.001324 -23.561305 -28.430623
Spine 1.448793 20.530744 1.467786
Head -20.547565 2.195411 11.460696
LeftShoulder -14.005788 -2.379155 29.763685
LeftArm -7.214090 -27.832093 -75.636772
LeftForeArm -48.554213 -0.000000 134.173731
LeftHand 7.790069 -0.000000 -43.591914
LeftHandThumb1 -26.253704 0.000000 33.147579
RightShoulder -9.949588 -3.656084 -23.401073
RightArm 34.029627 -54.584719 78.269724
RightForeArm -18.988500 -0.000000 17.251994
RightHand 16.480806 -0.000000 12.535021
RightHandThumb1 -24.326973 -0.000000 -32.862282
LeftUpLeg -11.734981 20.985513 10.925951
LeftLeg -8.039994 -0.000000 0.000000
LeftFoot -18.343194 26.212951 -16.991870
LeftToeBase 19.954269 -0.000000 -0.000000
RightUpLeg 19.574615 -43.975091 -46.349801
RightLeg 119.748422 -0.000000 -0.000000
RightFoot 35.349613 -21.749757 23.313920
RightToeBase 18.893323 -0.000000 -0.000000
3697
root 7.006117 33.863318 3.312688 30.961041 -23.436205 -28.461618
Spine 1.385419 20.450293 1.531986
Head -20.655791 2.143714 11.478000
LeftShoulder -14.002543 -2.298148 29.722432
LeftArm -7.245390 -27.848516 -75.709848
LeftForeArm -48.582113 -0.000000 134.293505
LeftHand 7.735935 0.000000 -43.648061
LeftHandThumb1 -26.253704 0.000000 33.147579
RightShoulder -9.970415 -3.744876 -23.345114
RightArm 34.058085 -54.646575 78.199290
RightForeArm -19.019030 -0.000000 17.211856
RightHand 16.458409 -0.000000 12.705591
RightHandThumb1 -24.326973 -0.000000 -32.862282
LeftUpLeg -11.707025 21.047550 10.981447
LeftLeg -8.018140 -0.000000 0.000000
LeftFoot -18.202978 26.042491 -16.830459
LeftToeBase 19.959687 -0.000000 -0.000000
RightUpLeg 19.883143 -43.652900 -46.589806
RightLeg 121.084163 -0.000000 -0.000000
RightFoot 35.657712 -21.582495 23.290881
RightToeBase 18.543629 -0.000000 -0.000000
3698
root 7.000654 33.868076 3.328206 30.919061 -23.323114 -28.490937
Spine 1.314088 20.419455 1.581147
Head -20.786082 2.073041 11.482290
LeftShoulder -13.989040 -2.248469 29.689359
LeftArm -7.278185 -27.835065 -75.784051
LeftForeArm -48.576353 -0.000000 134.417330
LeftHand 7.723058 -0.000000 -43.724385
LeftHandThumb1 -26.253704 0.000000 33.147579
RightShoulder -10.002791 -3.850460 -23.297782
RightArm 33.938222 -54.569412 78.341241
RightForeArm -19.298546 -0.000000 17.116304
RightHand 16.479413 -0.000000 12.880355
RightHandThumb1 -24.326973 -0.000000 -32.862282
LeftUpLeg -11.647718 21.172408 11.031594
LeftLeg -8.086693 -0.000000 0.000000
LeftFoot -18.236907 25.740680 -17.056728
LeftToeBase 20.313317 -0.000000 -0.000000
RightUpLeg 20.188036 -43.255699 -46.833431
RightLeg 122.311086 -0.000000 -0.000000
RightFoot 36.138169 -21.120132 23.215529
RightToeBase 18.256859 -0.000000 -0.000000
3699
root 6.994402 33.871265 3.346698 30.874632 -23.187936 -28.498900
Spine 1.222278 20.344757 1.618590
Head -20.883854 1.996917 11.499921
LeftShoulder -14.017213 -2.153925 29.644361
LeftArm -7.242661 -27.810669 -75.865301
LeftForeArm -48.586143 0.000000 134.520585
LeftHand 7.726441 -0.000000 -43.793574
LeftHandThumb1 -26.253704 0.000000 33.147579
RightShoulder -10.010851 -3.949579 -23.259262
RightArm 33.897522 -54.597821 78.364578
RightForeArm -19.437186 -0.000000 17.035772
RightHand 16.531546 -0.000000 12.951741
RightHandThumb1 -24.326973 -0.000000 -32.862282
LeftUpLeg -11.599730 21.223702 11.077676
LeftLeg -8.125797 -0.000000 0.000000
LeftFoot -18.193464 25.569400 -17.096151
LeftToeBase 20.334227 -0.000000 -0.000000
RightUpLeg 20.555441 -42.861302 -47.111151
RightLeg 123.411240 -0.000000 -0.000000
RightFoot 36.646998 -20.682708 23.166994
RightToeBase 18.422624 -0.000000 -0.000000
3700
root 6.986370 33.874005 3.367338 30.823177 -23.043487 -28.510218
Spine 1.132865 20.296567 1.659560
Head -20.981517 1.935886 11.509793
LeftShoulder -14.038308 -2.123602 29.613389
LeftArm -7.233696 -27.781816 -75.915392
LeftForeArm -48.660736 -0.000000 134.602339
LeftHand 7.682769 0.000000 -43.911150
LeftHandThumb1 -26.253704 0.000000 33.147579
RightShoulder -10.024520 -4.017803 -23.243646
RightArm 33.809929 -54.701131 78.384587
RightForeArm -19.468713 -0.000000 17.017579
RightHand 16.504939 0.000000 12.929452
RightHandThumb1 -24.326973 -0.000000 -32.862282
LeftUpLeg -11.529190 21.289501 11.128258
LeftLeg -8.192044 -0.000000 0.000000
LeftFoot -18.127082 25.373715 -17.094835
LeftToeBase 20.262999 -0.000000 -0.000000
RightUpLeg 20.951037 -42.464076 -47.390143
RightLeg 124.414271 -0.000000 -0.000000
RightFoot 36.910985 -20.386533 23.230188
RightToeBase 18.578527 -0.000000 -0.000000
